<svg width="88" height="78" viewBox="0 0 88 78" fill="none" xmlns="http://www.w3.org/2000/svg">
<path d="M47.6082 2.4999L87.2998 71.2499C87.6655 71.8833 87.858 72.6018 87.8581 73.3332C87.8581 74.0646 87.6655 74.7831 87.2998 75.4165C86.9342 76.0499 86.4082 76.5759 85.7748 76.9416C85.1414 77.3073 84.4229 77.4999 83.6915 77.4999H4.30816C3.57677 77.4999 2.85826 77.3073 2.22487 76.9416C1.59147 76.5759 1.06549 76.0499 0.699803 75.4165C0.334114 74.7831 0.141597 74.0646 0.141602 73.3332C0.141606 72.6018 0.334132 71.8833 0.699829 71.2499L40.3915 2.4999C40.7572 1.86653 41.2832 1.34059 41.9166 0.974922C42.55 0.609254 43.2685 0.416748 43.9998 0.416748C44.7312 0.416748 45.4497 0.609254 46.0831 0.974922C46.7165 1.34059 47.2424 1.86653 47.6082 2.4999ZM39.8332 56.6666V64.9999H48.1665V56.6666H39.8332ZM39.8332 27.4999V48.3332H48.1665V27.4999H39.8332Z" fill="#8B4000"/>
</svg>
