<svg width="50" height="50" viewBox="0 0 50 50" fill="none" xmlns="http://www.w3.org/2000/svg">
<g id="flowbite:edit-solid">
<g id="Group">
<path id="Vector" fill-rule="evenodd" clip-rule="evenodd" d="M23.5417 12.9166H10.4167C9.3116 12.9166 8.25179 13.3556 7.47039 14.137C6.68899 14.9184 6.25 15.9782 6.25 17.0833V39.5833C6.25 40.6883 6.68899 41.7481 7.47039 42.5295C8.25179 43.3109 9.3116 43.7499 10.4167 43.7499H33.3333C35.625 43.7499 37.5 41.6666 37.5 39.3749V22.9166L29.1667 31.6666C28.5417 32.2916 27.7083 32.9166 26.6667 33.1249L21.0417 34.3749C17.5 34.9999 14.1667 31.6666 14.7917 27.9166L16.0417 21.8749C16.25 20.8333 16.875 19.7916 17.5 19.1666L23.75 12.7083L23.5417 12.9166Z" fill="black"/>
<path id="Vector_2" fill-rule="evenodd" clip-rule="evenodd" d="M41.25 8.95825C40.8582 7.96589 40.1173 7.1509 39.1667 6.66659C38.4066 6.3332 37.5643 6.23441 36.7477 6.38289C35.9311 6.53136 35.1774 6.92032 34.5833 7.49992L33.3333 8.74992L39.375 14.9999L40.4167 13.7499C40.821 13.3374 41.1397 12.8488 41.3542 12.3124C41.5687 11.7761 41.6749 11.2025 41.6667 10.6249C41.6667 10.2083 41.6667 9.58325 41.25 8.95825ZM36.25 18.1249L30.4167 11.8749L20.4167 22.2916L20.2083 22.9166L18.75 29.1666C18.75 29.7916 19.375 30.6249 20 30.4166L25.625 29.1666L26.25 28.9583L36.0417 18.5416L36.25 18.1249Z" fill="black"/>
</g>
</g>
</svg>
