<svg width="100" height="100" viewBox="0 0 100 100" fill="none" xmlns="http://www.w3.org/2000/svg">
<g id="mdi:file-pdf-box">
<path id="Vector" d="M79.1667 12.5H20.8333C16.25 12.5 12.5 16.25 12.5 20.8333V79.1667C12.5 83.75 16.25 87.5 20.8333 87.5H79.1667C83.75 87.5 87.5 83.75 87.5 79.1667V20.8333C87.5 16.25 83.75 12.5 79.1667 12.5ZM39.5833 47.9167C39.5833 51.25 36.6667 54.1667 33.3333 54.1667H29.1667V62.5H22.9167V37.5H33.3333C36.6667 37.5 39.5833 40.4167 39.5833 43.75V47.9167ZM60.4167 56.25C60.4167 59.5833 57.5 62.5 54.1667 62.5H43.75V37.5H54.1667C57.5 37.5 60.4167 40.4167 60.4167 43.75V56.25ZM77.0833 43.75H70.8333V47.9167H77.0833V54.1667H70.8333V62.5H64.5833V37.5H77.0833V43.75ZM50 43.75H54.1667V56.25H50V43.75ZM29.1667 43.75H33.3333V47.9167H29.1667V43.75Z" fill="#A276FF"/>
</g>
</svg>
