<svg width="76" height="76" viewBox="0 0 76 76" fill="none" xmlns="http://www.w3.org/2000/svg">
<path fill-rule="evenodd" clip-rule="evenodd" d="M21.3333 17.1667C21.3333 12.7464 23.0893 8.50716 26.2149 5.38155C29.3405 2.25595 33.5797 0.5 38 0.5C42.4203 0.5 46.6595 2.25595 49.7851 5.38155C52.9107 8.50716 54.6667 12.7464 54.6667 17.1667C54.6667 21.5869 52.9107 25.8262 49.7851 28.9518C46.6595 32.0774 42.4203 33.8333 38 33.8333C33.5797 33.8333 29.3405 32.0774 26.2149 28.9518C23.0893 25.8262 21.3333 21.5869 21.3333 17.1667ZM21.3333 42.1667C15.808 42.1667 10.5089 44.3616 6.60194 48.2686C2.69493 52.1756 0.5 57.4747 0.5 63C0.5 66.3152 1.81696 69.4946 4.16117 71.8388C6.50537 74.183 9.68479 75.5 13 75.5H63C66.3152 75.5 69.4946 74.183 71.8388 71.8388C74.183 69.4946 75.5 66.3152 75.5 63C75.5 57.4747 73.3051 52.1756 69.3981 48.2686C65.491 44.3616 60.192 42.1667 54.6667 42.1667H21.3333Z" fill="#A276FF"/>
</svg>
